<svg xmlns="http://www.w3.org/2000/svg" width="1468" height="217" viewBox="0 0 1468 217" overflow="visible"><path fill="#E63A38" d="M133.117 101.463L75.32 39.613H0v177.105h75.102v-87.639l15.863 15.777M190.436 128.381v88.337h75.798V50.769z"/><linearGradient id="a" gradientUnits="userSpaceOnUse" x1="113.497" y1="164.039" x2="275.497" y2="-1.962"><stop offset=".184" stop-color="#e63a38"/><stop offset=".761" stop-color="#4171b8"/></linearGradient><path fill="url(#a)" d="M280.348 119.869L280.322 0 149.795.045l42.236 38.767L90.965 144.856l42.152 41.927 104.17-106.436z"/><path fill="#4171B8" d="M302.077 152.236h-10.801v-18.191h13.928l3.553-21.033H296.25V94.82h15.634l3.553-20.75h18.76l-3.553 20.75h20.607l3.553-20.75h18.76l-3.553 20.75h10.801v18.191h-13.928l-3.553 21.033h12.507v18.191h-15.634l-3.695 21.318h-18.76l3.695-21.318h-20.607l-3.695 21.318h-18.76l3.695-21.317zm42.494-18.192l3.553-21.033h-20.607l-3.553 21.033h20.607zM398.713 74.07H420.6v99.484h-21.887V74.07zM443.194 97.377h21.603v10.802c4.974-6.396 11.512-12.223 22.455-12.223 9.948 0 17.48 4.405 21.46 12.08 6.68-7.816 14.639-12.08 25.014-12.08 16.06 0 25.724 9.664 25.724 27.998v49.6h-21.603V131.06c0-10.232-4.548-15.491-12.648-15.491-8.102 0-13.075 5.259-13.075 15.491v42.494h-21.603V131.06c0-10.232-4.548-15.491-12.648-15.491-8.102 0-13.075 5.259-13.075 15.491v42.494h-21.603V97.377zM572.801 74.07h23.45l20.607 67.365 22.312-67.649h18.76l22.313 67.649L700.85 74.07h22.881l-33.967 100.195H670.72l-22.455-65.092-22.455 65.092h-19.044L572.801 74.07zM735.961 69.806H758.7v19.187h-22.739V69.806zm.568 27.571h21.603v76.177h-21.603V97.377zM782.004 151.952v-36.099h-9.096V97.377h9.096v-19.47h21.603v19.471h17.907v18.476h-17.907V148.4c0 4.975 2.132 7.391 6.964 7.391 3.979 0 7.532-.995 10.659-2.7v17.338c-4.548 2.7-9.807 4.406-17.055 4.406-13.217-.002-22.171-5.26-22.171-22.883zM837.427 69.806h21.603v38.373c4.974-6.396 11.369-12.223 22.312-12.223 16.344 0 25.866 10.801 25.866 28.282v49.315h-21.603V131.06c0-10.232-4.832-15.491-13.075-15.491-8.242 0-13.501 5.259-13.501 15.491v42.494h-21.603V69.806zM928.235 74.07h21.886v39.367h40.362V74.07h21.887v99.484h-21.887v-39.936h-40.362v39.936h-21.886V74.07zM1030.271 135.892v-.284c0-21.744 15.491-39.651 37.662-39.651 25.439 0 37.094 19.755 37.094 41.357 0 1.705-.143 3.694-.284 5.685h-53.011c2.131 9.806 8.953 14.923 18.617 14.923 7.248 0 12.507-2.274 18.476-7.817l12.364 10.943c-7.105 8.812-17.338 14.212-31.124 14.212-22.881-.001-39.794-16.06-39.794-39.368zm53.721-6.395c-1.279-9.664-6.964-16.201-16.06-16.201-8.953 0-14.78 6.396-16.486 16.201h32.546zM1121.08 97.377h21.603v15.35c4.405-10.518 11.512-17.339 24.303-16.771v22.597h-1.138c-14.354 0-23.165 8.67-23.165 26.861v28.14h-21.603V97.377zM1174.672 135.892v-.284c0-21.744 16.628-39.651 39.937-39.651 14.354 0 23.308 4.832 30.413 12.791l-13.217 14.212c-4.832-5.116-9.664-8.385-17.339-8.385-10.801 0-18.476 9.521-18.476 20.749v.284c0 11.654 7.532 21.034 19.328 21.034 7.248 0 12.223-3.127 17.481-8.102l12.648 12.791c-7.391 8.102-15.918 13.928-31.124 13.928-22.881 0-39.651-17.623-39.651-39.367zM1259.514 69.806h21.603v38.373c4.974-6.396 11.369-12.223 22.312-12.223 16.344 0 25.866 10.801 25.866 28.282v49.315h-21.603V131.06c0-10.232-4.832-15.491-13.075-15.491-8.242 0-13.501 5.259-13.501 15.491v42.494h-21.603V69.806zM1344.353 135.892v-.284c0-21.744 15.491-39.651 37.662-39.651 25.439 0 37.094 19.755 37.094 41.357 0 1.705-.143 3.694-.284 5.685h-53.011c2.131 9.806 8.953 14.923 18.617 14.923 7.248 0 12.507-2.274 18.476-7.817l12.364 10.943c-7.105 8.812-17.338 14.212-31.124 14.212-22.881-.001-39.794-16.06-39.794-39.368zm53.721-6.395c-1.279-9.664-6.964-16.201-16.06-16.201-8.953 0-14.78 6.396-16.486 16.201h32.546zM1436.157 69.806h21.603v103.748h-21.603V69.806z"/></svg>