<svg xmlns="http://www.w3.org/2000/svg" width="280" height="248" viewBox="-0.002 0 280 248" overflow="visible"><path fill="#E53838" d="M133.117 101.463L75.32 39.613H0v177.105h75.102v-87.639l15.863 15.776M190.436 128.381v88.337h75.798V50.769z"/><linearGradient id="a" gradientUnits="userSpaceOnUse" x1="113.498" y1="84.962" x2="275.498" y2="250.963" gradientTransform="matrix(1 0 0 -1 0 249)"><stop offset=".184" stop-color="#e53838"/><stop offset=".761" stop-color="#3272ce"/></linearGradient><path fill="url(#a)" d="M280.348 119.868L280.322 0 149.795.045l42.236 38.767L90.965 144.855l42.152 41.928 104.17-106.436z"/><path fill="#3272CE" d="M3.583 243.412H1.128v-4.135h3.166l.808-4.78H2.259v-4.135h3.553l.808-4.717h4.264l-.808 4.717h4.684l.808-4.717h4.264l-.808 4.717h2.455v4.135h-3.166l-.808 4.78h2.842v4.135h-3.553l-.84 4.846H11.69l.84-4.846H7.848l-.84 4.846H2.744l.839-4.846zm9.659-4.135l.808-4.78H9.366l-.808 4.78h4.684zM25.552 225.646h4.975v22.612h-4.975v-22.612zM35.664 230.943h4.91v2.455c1.131-1.453 2.617-2.778 5.104-2.778 2.261 0 3.973 1.002 4.878 2.746 1.518-1.776 3.327-2.746 5.685-2.746 3.65 0 5.847 2.197 5.847 6.364v11.273h-4.91V238.6c0-2.326-1.034-3.521-2.875-3.521s-2.972 1.195-2.972 3.521v9.658h-4.91V238.6c0-2.326-1.034-3.521-2.875-3.521s-2.972 1.195-2.972 3.521v9.658h-4.91v-17.315zM65.127 225.646h5.33l4.684 15.312 5.072-15.376h4.264l5.072 15.376 4.684-15.312h5.201l-7.721 22.773h-4.329l-5.104-14.794-5.104 14.794h-4.329l-7.72-22.773zM102.218 224.677h5.168v4.361h-5.168v-4.361zm.129 6.266h4.91v17.314h-4.91v-17.314zM112.685 243.348v-8.205h-2.067v-4.199h2.067v-4.426h4.91v4.426h4.07v4.199h-4.07v7.397c0 1.131.485 1.68 1.583 1.68.904 0 1.712-.226 2.423-.613v3.94c-1.034.614-2.229 1.002-3.876 1.002-3.006 0-5.04-1.195-5.04-5.201zM125.284 224.677h4.91v8.722c1.131-1.453 2.584-2.778 5.072-2.778 3.715 0 5.879 2.455 5.879 6.429v11.209h-4.91V238.6c0-2.326-1.099-3.521-2.972-3.521s-3.069 1.195-3.069 3.521v9.658h-4.91v-23.581zM145.927 225.646h4.975v8.948h9.175v-8.948h4.975v22.612h-4.975v-9.077h-9.175v9.077h-4.975v-22.612zM169.123 239.697v-.064c0-4.942 3.521-9.013 8.56-9.013 5.782 0 8.431 4.49 8.431 9.4 0 .388-.031.84-.064 1.292H174c.484 2.229 2.035 3.392 4.232 3.392 1.646 0 2.842-.517 4.199-1.776l2.811 2.487c-1.615 2.003-3.941 3.23-7.075 3.23-5.2.001-9.044-3.65-9.044-8.948zm12.21-1.453c-.291-2.197-1.583-3.683-3.65-3.683-2.035 0-3.359 1.453-3.747 3.683h7.397zM189.766 230.943h4.91v3.489c1.002-2.391 2.617-3.941 5.523-3.812v5.137h-.258c-3.263 0-5.266 1.971-5.266 6.105v6.396h-4.91v-17.315zM201.949 239.697v-.064c0-4.942 3.779-9.013 9.076-9.013 3.263 0 5.298 1.099 6.913 2.907l-3.005 3.23c-1.098-1.163-2.195-1.905-3.94-1.905-2.455 0-4.199 2.164-4.199 4.716v.064c0 2.649 1.712 4.781 4.394 4.781 1.646 0 2.777-.711 3.973-1.842l2.875 2.907c-1.68 1.842-3.617 3.166-7.074 3.166-5.202.002-9.013-4.004-9.013-8.947zM221.236 224.677h4.909v8.722c1.131-1.453 2.585-2.778 5.071-2.778 3.715 0 5.879 2.455 5.879 6.429v11.209h-4.909V238.6c0-2.326-1.099-3.521-2.972-3.521-1.874 0-3.069 1.195-3.069 3.521v9.658h-4.909v-23.581zM240.521 239.697v-.064c0-4.942 3.521-9.013 8.561-9.013 5.782 0 8.432 4.49 8.432 9.4 0 .388-.033.84-.065 1.292H245.4c.484 2.229 2.035 3.392 4.231 3.392 1.648 0 2.843-.517 4.199-1.776l2.811 2.487c-1.615 2.003-3.941 3.23-7.074 3.23-5.202.001-9.046-3.65-9.046-8.948zm12.211-1.453c-.291-2.197-1.583-3.683-3.65-3.683-2.035 0-3.359 1.453-3.747 3.683h7.397zM261.392 224.677h4.909v23.581h-4.909v-23.581z"/></svg>