<svg xmlns="http://www.w3.org/2000/svg" width="111" height="96" viewBox="0 0 111 96" overflow="visible"><path fill="#FFF" d="M51.312 96.253H0V56.737c0-14.548 3.027-26.029 9.083-34.443C15.138 13.88 25.518 6.448 40.224 0l11.088 20.996c-9.044 4.247-15.295 8.474-18.755 12.681-3.461 4.207-5.387 9.181-5.78 14.922h24.535v47.654zm59.803 0h-51.31V56.737c0-14.548 3.027-26.029 9.082-34.443C74.942 13.88 85.322 6.448 100.027 0l11.088 20.996c-9.043 4.247-15.295 8.474-18.755 12.681s-5.387 9.181-5.78 14.922h24.535v47.654z"/></svg>