<svg version="1.1"
	 xmlns="http://www.w3.org/2000/svg" xmlns:xlink="http://www.w3.org/1999/xlink" xmlns:a="http://ns.adobe.com/AdobeSVGViewerExtensions/3.0/"
	 x="0px" y="0px" width="280px" height="248px" viewBox="-0.002 0 280 248"
	 overflow="visible" enable-background="new -0.002 0 280 248" xml:space="preserve">
<defs>
</defs>
<polyline fill="#E53838" points="133.117,101.463 75.32,39.613 0,39.613 0,216.718 75.102,216.718 75.102,129.079 90.965,144.855
	"/>
<polygon fill="#E53838" points="190.436,128.381 190.436,216.718 266.234,216.718 266.234,50.769 "/>
<linearGradient id="SVGID_1_" gradientUnits="userSpaceOnUse" x1="113.4976" y1="84.9624" x2="275.4979" y2="250.9627" gradientTransform="matrix(1 0 0 -1 0 249)">
	<stop  offset="0.184" style="stop-color:#E53838"/>
	<stop  offset="0.7607" style="stop-color:#3272CE"/>
</linearGradient>
<polygon fill="url(#SVGID_1_)" points="280.348,119.868 280.322,0 149.795,0.045 192.031,38.812 90.965,144.855 133.117,186.783
	237.287,80.347 "/>
<path fill="#3272CE" d="M3.583,243.412H1.128v-4.135h3.166l0.808-4.78H2.259v-4.135h3.553l0.808-4.717h4.264l-0.808,4.717h4.684
	l0.808-4.717h4.264l-0.808,4.717h2.455v4.135h-3.166l-0.808,4.78h2.842v4.135h-3.553l-0.84,4.846h-4.264l0.84-4.846H7.848
	l-0.84,4.846H2.744L3.583,243.412z M13.242,239.277l0.808-4.78H9.366l-0.808,4.78H13.242z"/>
<path fill="#3272CE" d="M25.552,225.646h4.975v22.612h-4.975V225.646z"/>
<path fill="#3272CE" d="M35.664,230.943h4.91v2.455c1.131-1.453,2.617-2.778,5.104-2.778c2.261,0,3.973,1.002,4.878,2.746
	c1.518-1.776,3.327-2.746,5.685-2.746c3.65,0,5.847,2.197,5.847,6.364v11.273h-4.91V238.6c0-2.326-1.034-3.521-2.875-3.521
	s-2.972,1.195-2.972,3.521v9.658h-4.91V238.6c0-2.326-1.034-3.521-2.875-3.521s-2.972,1.195-2.972,3.521v9.658h-4.91V230.943z"/>
<path fill="#3272CE" d="M65.127,225.646h5.33l4.684,15.312l5.072-15.376h4.264l5.072,15.376l4.684-15.312h5.201l-7.721,22.773
	h-4.329l-5.104-14.794l-5.104,14.794h-4.329L65.127,225.646z"/>
<path fill="#3272CE" d="M102.218,224.677h5.168v4.361h-5.168V224.677z M102.347,230.943h4.91v17.314h-4.91V230.943z"/>
<path fill="#3272CE" d="M112.685,243.348v-8.205h-2.067v-4.199h2.067v-4.426h4.91v4.426h4.07v4.199h-4.07v7.397
	c0,1.131,0.485,1.68,1.583,1.68c0.904,0,1.712-0.226,2.423-0.613v3.94c-1.034,0.614-2.229,1.002-3.876,1.002
	C114.719,248.549,112.685,247.354,112.685,243.348z"/>
<path fill="#3272CE" d="M125.284,224.677h4.91v8.722c1.131-1.453,2.584-2.778,5.072-2.778c3.715,0,5.879,2.455,5.879,6.429v11.209
	h-4.91V238.6c0-2.326-1.099-3.521-2.972-3.521s-3.069,1.195-3.069,3.521v9.658h-4.91V224.677z"/>
<path fill="#3272CE" d="M145.927,225.646h4.975v8.948h9.175v-8.948h4.975v22.612h-4.975v-9.077h-9.175v9.077h-4.975V225.646z"/>
<path fill="#3272CE" d="M169.123,239.697v-0.064c0-4.942,3.521-9.013,8.56-9.013c5.782,0,8.431,4.49,8.431,9.4
	c0,0.388-0.031,0.84-0.064,1.292H174c0.484,2.229,2.035,3.392,4.232,3.392c1.646,0,2.842-0.517,4.199-1.776l2.811,2.487
	c-1.615,2.003-3.941,3.23-7.075,3.23C172.967,248.646,169.123,244.995,169.123,239.697z M181.333,238.244
	c-0.291-2.197-1.583-3.683-3.65-3.683c-2.035,0-3.359,1.453-3.747,3.683H181.333z"/>
<path fill="#3272CE" d="M189.766,230.943h4.91v3.489c1.002-2.391,2.617-3.941,5.523-3.812v5.137h-0.258
	c-3.263,0-5.266,1.971-5.266,6.105v6.396h-4.91V230.943z"/>
<path fill="#3272CE" d="M201.949,239.697v-0.064c0-4.942,3.779-9.013,9.076-9.013c3.263,0,5.298,1.099,6.913,2.907l-3.005,3.23
	c-1.098-1.163-2.195-1.905-3.94-1.905c-2.455,0-4.199,2.164-4.199,4.716v0.064c0,2.649,1.712,4.781,4.394,4.781
	c1.646,0,2.777-0.711,3.973-1.842l2.875,2.907c-1.68,1.842-3.617,3.166-7.074,3.166C205.76,248.646,201.949,244.64,201.949,239.697z
	"/>
<path fill="#3272CE" d="M221.236,224.677h4.909v8.722c1.131-1.453,2.585-2.778,5.071-2.778c3.715,0,5.879,2.455,5.879,6.429v11.209
	h-4.909V238.6c0-2.326-1.099-3.521-2.972-3.521c-1.874,0-3.069,1.195-3.069,3.521v9.658h-4.909V224.677z"/>
<path fill="#3272CE" d="M240.521,239.697v-0.064c0-4.942,3.521-9.013,8.561-9.013c5.782,0,8.432,4.49,8.432,9.4
	c0,0.388-0.033,0.84-0.065,1.292h-12.049c0.484,2.229,2.035,3.392,4.231,3.392c1.648,0,2.843-0.517,4.199-1.776l2.811,2.487
	c-1.615,2.003-3.941,3.23-7.074,3.23C244.365,248.646,240.521,244.995,240.521,239.697z M252.732,238.244
	c-0.291-2.197-1.583-3.683-3.65-3.683c-2.035,0-3.359,1.453-3.747,3.683H252.732z"/>
<path fill="#3272CE" d="M261.392,224.677h4.909v23.581h-4.909V224.677z"/>
</svg>
