<svg version="1.1"
	 xmlns="http://www.w3.org/2000/svg" xmlns:xlink="http://www.w3.org/1999/xlink" xmlns:a="http://ns.adobe.com/AdobeSVGViewerExtensions/3.0/"
	 x="0px" y="0px" width="280px" height="217px" viewBox="0 0 280 217" overflow="visible" enable-background="new 0 0 280 217"
	 xml:space="preserve">
<defs>
</defs>
<polyline fill="#E53838" points="133.117,101.463 75.32,39.613 0,39.613 0,216.718 75.102,216.718 75.102,129.079 90.965,144.856
	"/>
<polyline display="none" fill="#231F20" points="190.436,158.059 190.436,275.928 266.234,275.928 266.234,54.499 "/>
<line display="none" fill="none" x1="190.913" y1="39.613" x2="91.203" y2="180.358"/>
<line display="none" fill="none" x1="133.117" y1="235.985" x2="266.234" y2="54.5"/>
<polygon fill="#E53838" points="190.436,128.381 190.436,216.718 266.234,216.718 266.234,50.769 "/>
<linearGradient id="SVGID_1_" gradientUnits="userSpaceOnUse" x1="113.4966" y1="164.0381" x2="275.4972" y2="-1.9626">
	<stop  offset="0.184" style="stop-color:#E53838"/>
	<stop  offset="0.7607" style="stop-color:#3272CE"/>
</linearGradient>
<polygon fill="url(#SVGID_1_)" points="280.348,119.868 280.322,0 149.795,0.045 192.031,38.812 90.965,144.856 133.117,186.783
	237.287,80.347 "/>
</svg>
